<svg width="114" height="19" viewBox="0 0 114 19" fill="none" xmlns="http://www.w3.org/2000/svg">
<path d="M15.248 5.736C15.248 7.464 14.648 8.808 13.448 9.768C12.264 10.712 10.696 11.184 8.744 11.184H5.144C4.968 11.184 4.88 11.272 4.88 11.448V17.448C4.88 17.816 4.672 18 4.256 18H1.184C0.992 18 0.856 17.96 0.776 17.88C0.712 17.8 0.68 17.68 0.68 17.52V0.647999C0.68 0.343999 0.808 0.191999 1.064 0.191999H8.264C9.592 0.191999 10.776 0.399999 11.816 0.816C12.872 1.216 13.704 1.832 14.312 2.664C14.936 3.496 15.248 4.52 15.248 5.736ZM10.928 5.664C10.928 4.848 10.664 4.232 10.136 3.816C9.608 3.4 8.896 3.192 8 3.192H5.336C5.176 3.192 5.056 3.224 4.976 3.288C4.912 3.352 4.88 3.464 4.88 3.624V7.728C4.88 7.888 4.904 8.008 4.952 8.088C5 8.152 5.088 8.184 5.216 8.184H8.168C9.016 8.184 9.688 7.96 10.184 7.512C10.68 7.064 10.928 6.448 10.928 5.664ZM22.4182 18.24C21.1542 18.24 20.0342 17.968 19.0582 17.424C18.0982 16.864 17.3462 16.088 16.8022 15.096C16.2582 14.104 15.9862 12.976 15.9862 11.712C15.9862 10.4 16.2582 9.24 16.8022 8.232C17.3622 7.224 18.1302 6.44 19.1062 5.88C20.0982 5.32 21.2102 5.04 22.4422 5.04C23.7062 5.04 24.8262 5.328 25.8022 5.904C26.7782 6.464 27.5302 7.248 28.0582 8.256C28.6022 9.264 28.8742 10.408 28.8742 11.688C28.8742 12.952 28.6022 14.08 28.0582 15.072C27.5142 16.064 26.7542 16.84 25.7782 17.4C24.8022 17.96 23.6822 18.24 22.4182 18.24ZM22.4422 15.792C23.3222 15.792 23.9862 15.448 24.4342 14.76C24.8982 14.056 25.1302 13.016 25.1302 11.64C25.1302 10.248 24.8982 9.2 24.4342 8.496C23.9862 7.776 23.3222 7.416 22.4422 7.416C21.5622 7.416 20.8902 7.776 20.4262 8.496C19.9622 9.2 19.7302 10.248 19.7302 11.64C19.7302 13 19.9622 14.032 20.4262 14.736C20.8902 15.44 21.5622 15.792 22.4422 15.792ZM31.4334 18C31.0974 18 30.9294 17.84 30.9294 17.52V5.736C30.9294 5.432 31.0574 5.28 31.3134 5.28H34.1214C34.3774 5.28 34.5054 5.416 34.5054 5.688V7.104C34.5054 7.168 34.5214 7.216 34.5534 7.248C34.5854 7.28 34.6174 7.296 34.6494 7.296C34.6974 7.296 34.7614 7.256 34.8414 7.176C35.3214 6.536 35.8894 6.024 36.5454 5.64C37.2014 5.24 37.8254 5.04 38.4174 5.04C38.9934 5.04 39.2814 5.176 39.2814 5.448V8.232C39.2814 8.344 39.2494 8.432 39.1854 8.496C39.1214 8.56 39.0334 8.576 38.9214 8.544C38.4094 8.416 37.8494 8.352 37.2414 8.352C36.8414 8.352 36.4334 8.456 36.0174 8.664C35.6174 8.856 35.2814 9.12 35.0094 9.456C34.7534 9.776 34.6254 10.104 34.6254 10.44V17.448C34.6254 17.816 34.4174 18 34.0014 18H31.4334ZM46.5001 7.824C46.3241 7.824 46.2361 7.92 46.2361 8.112V13.896C46.2361 14.44 46.3641 14.832 46.6201 15.072C46.8761 15.296 47.2841 15.408 47.8441 15.408H49.1401C49.2521 15.408 49.3401 15.448 49.4041 15.528C49.4681 15.592 49.5001 15.688 49.5001 15.816L49.4761 17.28C49.4761 17.6 49.3001 17.792 48.9481 17.856C48.2761 17.952 47.3241 18 46.0921 18C44.9721 18 44.1001 17.736 43.4761 17.208C42.8521 16.68 42.5401 15.912 42.5401 14.904V8.184C42.5401 7.944 42.4361 7.824 42.2281 7.824H40.7641C40.4601 7.824 40.3081 7.688 40.3081 7.416V5.64C40.3081 5.4 40.4521 5.28 40.7401 5.28H42.3961C42.5241 5.28 42.6041 5.192 42.6361 5.016L42.9721 1.368C43.0041 1.096 43.1241 0.959999 43.3321 0.959999H45.9481C46.0601 0.959999 46.1481 0.999999 46.2121 1.08C46.2921 1.16 46.3321 1.272 46.3321 1.416V5.016C46.3321 5.176 46.4121 5.256 46.5721 5.256H49.0921C49.3801 5.256 49.5241 5.384 49.5241 5.64V7.416C49.5241 7.688 49.3641 7.824 49.0441 7.824H46.5001ZM56.9651 18.24C55.7011 18.24 54.5811 17.968 53.6051 17.424C52.6451 16.864 51.8931 16.088 51.3491 15.096C50.8051 14.104 50.5331 12.976 50.5331 11.712C50.5331 10.4 50.8051 9.24 51.3491 8.232C51.9091 7.224 52.6771 6.44 53.6531 5.88C54.6451 5.32 55.7571 5.04 56.9891 5.04C58.2531 5.04 59.3731 5.328 60.3491 5.904C61.3251 6.464 62.0771 7.248 62.6051 8.256C63.1491 9.264 63.4211 10.408 63.4211 11.688C63.4211 12.952 63.1491 14.08 62.6051 15.072C62.0611 16.064 61.3011 16.84 60.3251 17.4C59.3491 17.96 58.2291 18.24 56.9651 18.24ZM56.9891 15.792C57.8691 15.792 58.5331 15.448 58.9811 14.76C59.4451 14.056 59.6771 13.016 59.6771 11.64C59.6771 10.248 59.4451 9.2 58.9811 8.496C58.5331 7.776 57.8691 7.416 56.9891 7.416C56.1091 7.416 55.4371 7.776 54.9731 8.496C54.5091 9.2 54.2771 10.248 54.2771 11.64C54.2771 13 54.5091 14.032 54.9731 14.736C55.4371 15.44 56.1091 15.792 56.9891 15.792ZM72.4698 5.28C72.6138 5.28 72.7258 5.32 72.8058 5.4C72.8858 5.48 72.9258 5.576 72.9258 5.688V7.464C72.9258 7.704 72.7898 7.824 72.5178 7.824H70.5258C70.3658 7.824 70.2858 7.912 70.2858 8.088V17.544C70.2858 17.848 70.1578 18 69.9018 18H66.9498C66.7098 18 66.5898 17.864 66.5898 17.592V8.04C66.5898 7.896 66.5258 7.824 66.3978 7.824H64.6698C64.3818 7.824 64.2378 7.704 64.2378 7.464V5.688C64.2378 5.576 64.2778 5.48 64.3578 5.4C64.4378 5.32 64.5498 5.28 64.6938 5.28H66.3018C66.4138 5.28 66.4858 5.256 66.5178 5.208C66.5658 5.144 66.5898 5.048 66.5898 4.92V3.456C66.5898 2.432 66.8938 1.632 67.5018 1.056C68.1098 0.479999 68.9658 0.191999 70.0698 0.191999H72.4938C72.8458 0.191999 73.0218 0.359999 73.0218 0.696L73.0458 2.256C73.0458 2.528 72.9258 2.664 72.6858 2.664H71.3898C71.0378 2.664 70.7498 2.8 70.5258 3.072C70.3018 3.328 70.1898 3.664 70.1898 4.08V5.016C70.1898 5.192 70.2858 5.28 70.4778 5.28H72.4698ZM80.1213 18.24C78.8573 18.24 77.7373 17.968 76.7613 17.424C75.8013 16.864 75.0493 16.088 74.5053 15.096C73.9613 14.104 73.6893 12.976 73.6893 11.712C73.6893 10.4 73.9613 9.24 74.5053 8.232C75.0653 7.224 75.8333 6.44 76.8093 5.88C77.8013 5.32 78.9133 5.04 80.1453 5.04C81.4093 5.04 82.5293 5.328 83.5053 5.904C84.4813 6.464 85.2333 7.248 85.7613 8.256C86.3053 9.264 86.5773 10.408 86.5773 11.688C86.5773 12.952 86.3053 14.08 85.7613 15.072C85.2173 16.064 84.4573 16.84 83.4813 17.4C82.5053 17.96 81.3853 18.24 80.1213 18.24ZM80.1453 15.792C81.0253 15.792 81.6893 15.448 82.1373 14.76C82.6013 14.056 82.8333 13.016 82.8333 11.64C82.8333 10.248 82.6013 9.2 82.1373 8.496C81.6893 7.776 81.0253 7.416 80.1453 7.416C79.2653 7.416 78.5933 7.776 78.1293 8.496C77.6653 9.2 77.4333 10.248 77.4333 11.64C77.4333 13 77.6653 14.032 78.1293 14.736C78.5933 15.44 79.2653 15.792 80.1453 15.792ZM92.3525 17.424C92.3525 17.632 92.3045 17.784 92.2085 17.88C92.1125 17.96 91.9445 18 91.7045 18H89.1605C88.9685 18 88.8325 17.96 88.7525 17.88C88.6725 17.8 88.6325 17.672 88.6325 17.496L88.7045 0.647999C88.7045 0.343999 88.8325 0.191999 89.0885 0.191999H91.9925C92.2325 0.191999 92.3525 0.335999 92.3525 0.623999V17.424ZM98.7515 3.144C98.7515 3.544 98.5355 3.744 98.1035 3.744H95.5115C95.3195 3.744 95.1835 3.704 95.1035 3.624C95.0235 3.528 94.9835 3.384 94.9835 3.192V0.671999C94.9835 0.351999 95.1195 0.191999 95.3915 0.191999H98.3675C98.4795 0.191999 98.5675 0.231999 98.6315 0.311999C98.7115 0.391999 98.7515 0.503999 98.7515 0.647999V3.144ZM98.7035 17.424C98.7035 17.632 98.6555 17.784 98.5595 17.88C98.4635 17.96 98.2955 18 98.0555 18H95.5355C95.3435 18 95.2075 17.96 95.1275 17.88C95.0475 17.8 95.0075 17.672 95.0075 17.496V5.736C95.0075 5.432 95.1435 5.28 95.4155 5.28H98.3435C98.5835 5.28 98.7035 5.416 98.7035 5.688V17.424ZM107.215 18.24C105.951 18.24 104.831 17.968 103.855 17.424C102.895 16.864 102.143 16.088 101.599 15.096C101.055 14.104 100.783 12.976 100.783 11.712C100.783 10.4 101.055 9.24 101.599 8.232C102.159 7.224 102.927 6.44 103.903 5.88C104.895 5.32 106.007 5.04 107.239 5.04C108.503 5.04 109.623 5.328 110.599 5.904C111.575 6.464 112.327 7.248 112.855 8.256C113.399 9.264 113.671 10.408 113.671 11.688C113.671 12.952 113.399 14.08 112.855 15.072C112.311 16.064 111.551 16.84 110.575 17.4C109.599 17.96 108.479 18.24 107.215 18.24ZM107.239 15.792C108.119 15.792 108.783 15.448 109.231 14.76C109.695 14.056 109.927 13.016 109.927 11.64C109.927 10.248 109.695 9.2 109.231 8.496C108.783 7.776 108.119 7.416 107.239 7.416C106.359 7.416 105.687 7.776 105.223 8.496C104.759 9.2 104.527 10.248 104.527 11.64C104.527 13 104.759 14.032 105.223 14.736C105.687 15.44 106.359 15.792 107.239 15.792Z" fill="white"/>
</svg>
